{
  "asset": {
    "generator": "Khronos glTF Blender I/O v4.0.44",
    "version": "2.0"
  },
  "scene": 0,
  "scenes": [
    {
      "name": "Scene",
      "nodes": [
        0,
        1
      ]
    }
  ],
  "nodes": [
    {
      "mesh": 0,
      "name": "Shape_IndexedFaceSet.017",
      "rotation": [
        -0.20696426928043365,
        0.910331130027771,
        -0.2783419191837311,
        0.22580698132514954
      ],
      "scale": [
        0.2113407701253891,
        0.2113407850265503,
        0.2113407701253891
      ],
      "translation": [
        0.0005006492137908936,
        1.2506946325302124,
        -0.04180270433425903
      ]
    },
    {
      "mesh": 1,
      "name": "Cone",
      "scale": [
        1.0772658586502075,
        1.0772658586502075,
        1.0772658586502075
      ],
      "translation": [
        0.0009686648845672607,
        1.620383858680725,
        0.03456670045852661
      ],
      "rotation": [
        0,
        0,
        0,
        1
      ]
    }
  ],
  "materials": [
    {
      "doubleSided": true,
      "name": "Shape",
      "pbrMetallicRoughness": {
        "baseColorFactor": [
          0.9388059973716736,
          0.5815885066986084,
          0.1860724240541458,
          1
        ],
        "metallicFactor": 0,
        "roughnessFactor": 0.800000011920929
      },
      "emissiveFactor": [
        0,
        0,
        0
      ],
      "alphaMode": "OPAQUE"
    },
    {
      "doubleSided": true,
      "name": "O",
      "pbrMetallicRoughness": {
        "baseColorFactor": [
          0.800614058971405,
          0.031591907143592834,
          0.041294269263744354,
          1
        ],
        "metallicFactor": 0,
        "roughnessFactor": 0.5
      },
      "emissiveFactor": [
        0,
        0,
        0
      ],
      "alphaMode": "OPAQUE"
    },
    {
      "name": "default",
      "emissiveFactor": [
        0,
        0,
        0
      ],
      "alphaMode": "OPAQUE",
      "doubleSided": false
    }
  ],
  "meshes": [
    {
      "name": "Shape_IndexedFaceSet.017",
      "primitives": [
        {
          "attributes": {
            "POSITION": 0,
            "NORMAL": 1,
            "TEXCOORD_0": 2
          },
          "indices": 3,
          "material": 0,
          "mode": 4
        },
        {
          "attributes": {
            "POSITION": 4,
            "NORMAL": 5,
            "TEXCOORD_0": 6
          },
          "indices": 7,
          "material": 1,
          "mode": 4
        }
      ]
    },
    {
      "name": "Cone.003",
      "primitives": [
        {
          "attributes": {
            "POSITION": 8,
            "NORMAL": 9,
            "TEXCOORD_0": 10
          },
          "indices": 11,
          "mode": 4,
          "material": 2
        }
      ]
    }
  ],
  "accessors": [
    {
      "bufferView": 0,
      "componentType": 5126,
      "count": 1070,
      "max": [
        5.554297924041748,
        4.831236362457275,
        5.3575568199157715
      ],
      "min": [
        -3.55582594871521,
        -9.821492195129395,
        -7.4452409744262695
      ],
      "type": "VEC3",
      "byteOffset": 0
    },
    {
      "bufferView": 1,
      "componentType": 5126,
      "count": 1070,
      "type": "VEC3",
      "byteOffset": 0
    },
    {
      "bufferView": 2,
      "componentType": 5126,
      "count": 1070,
      "type": "VEC2",
      "byteOffset": 0
    },
    {
      "bufferView": 3,
      "componentType": 5123,
      "count": 4608,
      "type": "SCALAR",
      "byteOffset": 0
    },
    {
      "bufferView": 4,
      "componentType": 5126,
      "count": 1718,
      "max": [
        12.892985343933105,
        10.702181816101074,
        12.156060218811035
      ],
      "min": [
        -7.705683708190918,
        -11.124123573303223,
        -8.747872352600098
      ],
      "type": "VEC3",
      "byteOffset": 0
    },
    {
      "bufferView": 5,
      "componentType": 5126,
      "count": 1718,
      "type": "VEC3",
      "byteOffset": 0
    },
    {
      "bufferView": 6,
      "componentType": 5126,
      "count": 1718,
      "type": "VEC2",
      "byteOffset": 0
    },
    {
      "bufferView": 7,
      "componentType": 5123,
      "count": 8448,
      "type": "SCALAR",
      "byteOffset": 0
    },
    {
      "bufferView": 8,
      "componentType": 5126,
      "count": 28,
      "max": [
        1.9688873291015625,
        1.9993774890899658,
        2.1115167140960693
      ],
      "min": [
        -1.8119033575057983,
        -1.2221174240112305,
        -1.3492512702941895
      ],
      "type": "VEC3",
      "byteOffset": 0
    },
    {
      "bufferView": 9,
      "componentType": 5126,
      "count": 28,
      "type": "VEC3",
      "byteOffset": 0
    },
    {
      "bufferView": 10,
      "componentType": 5126,
      "count": 28,
      "type": "VEC2",
      "byteOffset": 0
    },
    {
      "bufferView": 11,
      "componentType": 5123,
      "count": 72,
      "type": "SCALAR",
      "byteOffset": 0
    }
  ],
  "bufferViews": [
    {
      "buffer": 0,
      "byteLength": 12840,
      "byteOffset": 0,
      "target": 34962,
      "byteStride": 12
    },
    {
      "buffer": 0,
      "byteLength": 12840,
      "byteOffset": 12840,
      "target": 34962,
      "byteStride": 12
    },
    {
      "buffer": 0,
      "byteLength": 8560,
      "byteOffset": 25680,
      "target": 34962,
      "byteStride": 8
    },
    {
      "buffer": 0,
      "byteLength": 9216,
      "byteOffset": 34240,
      "target": 34963
    },
    {
      "buffer": 0,
      "byteLength": 20616,
      "byteOffset": 43456,
      "target": 34962,
      "byteStride": 12
    },
    {
      "buffer": 0,
      "byteLength": 20616,
      "byteOffset": 64072,
      "target": 34962,
      "byteStride": 12
    },
    {
      "buffer": 0,
      "byteLength": 13744,
      "byteOffset": 84688,
      "target": 34962,
      "byteStride": 8
    },
    {
      "buffer": 0,
      "byteLength": 16896,
      "byteOffset": 98432,
      "target": 34963
    },
    {
      "buffer": 0,
      "byteLength": 336,
      "byteOffset": 115328,
      "target": 34962,
      "byteStride": 12
    },
    {
      "buffer": 0,
      "byteLength": 336,
      "byteOffset": 115664,
      "target": 34962,
      "byteStride": 12
    },
    {
      "buffer": 0,
      "byteLength": 224,
      "byteOffset": 116000,
      "target": 34962,
      "byteStride": 8
    },
    {
      "buffer": 0,
      "byteLength": 144,
      "byteOffset": 116224,
      "target": 34963
    }
  ],
  "buffers": [
    {
      "name": "M01",
      "byteLength": 116368,
      "uri": "data:application/octet-stream;base64,"
    }
  ]
}
